<svg width="51" height="51" viewBox="0 0 51 51" fill="none" xmlns="http://www.w3.org/2000/svg">
<path d="M25.0752 26.4775C27.974 26.4775 30.3239 24.1275 30.3239 21.2287C30.3239 18.3299 27.974 15.98 25.0752 15.98C22.1764 15.98 19.8264 18.3299 19.8264 21.2287C19.8264 24.1275 22.1764 26.4775 25.0752 26.4775Z" stroke="black" stroke-width="3" stroke-linecap="round" stroke-linejoin="round"/>
<path d="M14.4927 40.9912V37.995C14.4927 34.51 17.3189 31.705 20.7827 31.705H30.1964C33.6814 31.705 36.4864 34.5312 36.4864 37.995V40.9912" stroke="black" stroke-width="3" stroke-linecap="round" stroke-linejoin="round"/>
<path d="M25.5 45.1562C36.3558 45.1562 45.1562 36.3558 45.1562 25.5C45.1562 14.6442 36.3558 5.84375 25.5 5.84375C14.6442 5.84375 5.84375 14.6442 5.84375 25.5C5.84375 36.3558 14.6442 45.1562 25.5 45.1562Z" stroke="black" stroke-width="3" stroke-linecap="round" stroke-linejoin="round"/>
</svg>
